<?xml version="1.0" standalone="no"?>
<!DOCTYPE svg PUBLIC "-//W3C//DTD SVG 20010904//EN"
 "http://www.w3.org/TR/2001/REC-SVG-20010904/DTD/svg10.dtd">
<svg version="1.0" xmlns="http://www.w3.org/2000/svg"
 width="387.000000pt" height="387.000000pt" viewBox="0 0 387.000000 387.000000"
 preserveAspectRatio="xMidYMid meet">
<metadata>
Created by potrace 1.14, written by Peter Selinger 2001-2017
</metadata>
<g transform="translate(0.000000,387.000000) scale(0.100000,-0.100000)"
fill="#000000" stroke="none">
<path d="M380 3306 c0 -5 -3 -7 -6 -4 -3 4 -20 2 -37 -4 -18 -5 -36 -10 -42
-12 -16 -3 -89 -39 -103 -51 -112 -86 -182 -226 -185 -365 -2 -144 96 -302
239 -382 75 -42 221 -57 308 -31 64 19 146 60 146 73 0 6 5 10 10 10 14 0 89
77 82 84 -3 3 -1 6 5 6 12 0 63 109 71 154 15 84 5 196 -25 262 -22 47 -76
133 -84 134 -4 0 -24 16 -45 35 -21 19 -43 35 -50 35 -6 0 -17 7 -24 15 -7 9
-15 13 -18 11 -2 -3 -14 0 -26 6 -22 13 -29 14 -91 23 -72 10 -125 11 -125 1z"/>
<path d="M1281 2970 l0 -340 435 0 434 0 0 -1035 0 -1035 425 0 425 0 0 1035
0 1035 433 0 432 0 0 337 0 338 -1292 3 -1292 2 0 -340z"/>
<path d="M14 1571 l0 -1011 427 0 427 0 0 997 c0 883 -1 994 -14 963 -8 -19
-20 -38 -27 -42 -7 -4 -9 -8 -4 -8 23 0 -96 -150 -120 -150 -5 0 -19 -9 -31
-20 -12 -12 -22 -18 -22 -14 0 4 -9 -1 -20 -11 -11 -10 -20 -15 -20 -11 0 4
-10 1 -22 -5 -34 -18 -218 -33 -218 -18 0 5 -9 6 -19 4 -11 -2 -54 14 -97 35
-119 60 -175 129 -233 283 -3 10 -6 -436 -7 -992z"/>
</g>
</svg>
